<svg width="30" height="30" viewBox="0 0 30 30" fill="none" xmlns="http://www.w3.org/2000/svg">
<path d="M15 10C12.2374 10 10 12.2374 10 15C10 17.7626 12.2374 20 15 20C17.7626 20 20 17.7626 20 15C20 12.2374 17.7588 10 15 10ZM15 18.2458C13.2078 18.2458 11.7542 16.7922 11.7542 15C11.7542 13.2078 13.2078 11.7542 15 11.7542C16.7922 11.7542 18.2458 13.2078 18.2458 15C18.2458 16.7922 16.7922 18.2458 15 18.2458Z" fill="#FF4F58"/>
<path d="M19.5366 4.0693C17.5127 3.97476 12.498 3.97906 10.4741 4.0693C8.69078 4.15524 7.12235 4.58493 5.8547 5.84822C3.74054 7.9666 4.01125 10.8155 4.01125 14.9964C4.01125 19.2761 3.77491 22.0605 5.8547 24.1445C7.97747 26.2672 10.8694 25.9879 15.0032 25.9879C19.2401 25.9879 20.7054 25.9922 22.2051 25.4121C24.2419 24.6215 25.7803 22.7996 25.9307 19.5296C26.0252 17.5058 26.0209 12.4913 25.9307 10.4674C25.7502 6.60448 23.6747 4.26266 19.5366 4.0693ZM22.738 22.7437C21.35 24.1316 19.4249 24.007 14.9731 24.007C10.3881 24.007 8.55328 24.0757 7.20829 22.7308C5.66563 21.1925 5.94494 18.7261 5.94494 14.9835C5.94494 9.9174 5.425 6.26932 10.5085 6.0115C11.6773 5.96853 12.021 5.95564 14.9602 5.95564L15.0032 5.98143C19.889 5.98143 23.722 5.47009 23.9497 10.5533C24.0013 11.7135 24.0142 12.0616 24.0142 14.9964C24.0142 19.5253 24.1001 21.3773 22.738 22.7437Z" fill="#FF4F58"/>
<path d="M20.5 11C21.3284 11 22 10.3284 22 9.5C22 8.67157 21.3284 8 20.5 8C19.6716 8 19 8.67157 19 9.5C19 10.3284 19.6716 11 20.5 11Z" fill="#FF4F58"/>
</svg>
