<svg width="30" height="30" viewBox="0 0 30 30" fill="none" xmlns="http://www.w3.org/2000/svg">
<path d="M25.9958 26H26V17.9606C26 14.0265 25.1623 11 20.6183 11C18.4352 11 16.9671 12.2115 16.3705 13.363H16.307V11.3682H12V26H16.4847V18.7526C16.4847 16.8433 16.8401 14.9983 19.1756 14.9983C21.4772 14.9983 21.511 17.1772 21.511 18.8724V26H25.9958Z" fill="#FF4F58"/>
<path d="M4 11H9V26H4V11Z" fill="#FF4F58"/>
<path d="M6.5 4C5.11789 4 4 5.11246 4 6.48786C4 7.86327 5.11789 9 6.5 9C7.88211 9 9 7.85922 9 6.48786C8.99593 5.11246 7.87805 4 6.5 4Z" fill="#FF4F58"/>
</svg>
