<svg width="30" height="30" viewBox="0 0 30 30" fill="none" xmlns="http://www.w3.org/2000/svg">
<path d="M24.6376 10.4859C25.5718 9.84571 26.3577 9.04975 27 8.12833C26.1422 8.48738 25.2349 8.72963 24.2828 8.84643C25.2619 8.28407 26.0074 7.40159 26.3577 6.33742C25.446 6.86085 24.44 7.22855 23.3665 7.43619C22.5042 6.54939 21.2691 6 19.9262 6C17.3167 6 15.2148 8.04182 15.2148 10.5422C15.2148 10.9012 15.2462 11.2473 15.3226 11.5761C11.4017 11.3901 7.93439 9.58183 5.6034 6.82624C5.19918 7.50541 4.95665 8.28407 4.95665 9.12329C4.95665 10.6979 5.79652 12.0908 7.0496 12.8955C6.29057 12.8825 5.5495 12.6705 4.92072 12.3374V12.3893C4.92072 14.5955 6.55556 16.4297 8.69791 16.8493C8.31166 16.9488 7.89397 17.0007 7.4628 17.0007C7.16188 17.0007 6.85647 16.9834 6.56903 16.9229C7.17985 18.7224 8.91349 20.0418 10.975 20.0851C9.37161 21.292 7.33255 22.0231 5.12732 22.0231C4.74107 22.0231 4.36829 22.0058 4 21.9625C6.08846 23.2603 8.56317 24 11.231 24C19.5579 23.9957 24.9789 17.3122 24.6376 10.4859Z" fill="#FF4F58"/>
</svg>
