<svg width="30" height="30" viewBox="0 0 30 30" fill="none" xmlns="http://www.w3.org/2000/svg">
<path d="M25.4923 9.28509L25.5193 9.47037C25.2407 8.49987 24.4904 7.75435 23.5379 7.48085L23.52 7.47644C21.7273 7.00001 14.5118 7.00001 14.5118 7.00001C14.5118 7.00001 7.3098 6.99119 5.49919 7.47644C4.52874 7.75435 3.77394 8.49987 3.50437 9.44831L3.49988 9.46596C2.83045 12.9024 2.82595 17.0314 3.53133 20.7105L3.49988 20.5252C3.77843 21.4957 4.52874 22.2412 5.48122 22.5148L5.49919 22.5192C7.29183 23 14.5073 23 14.5073 23C14.5073 23 21.7048 23 23.5155 22.5192C24.4904 22.2412 25.2407 21.4957 25.5148 20.5473L25.5193 20.5296C25.8248 18.9327 26 17.0932 26 15.214C26 15.1434 26 15.0772 26 15.0066C26 14.9405 26 14.8655 26 14.7905C26 12.9068 25.8248 11.0673 25.4923 9.28509ZM12.207 18.4342V11.5702L18.2139 15.0066L12.207 18.4342Z" fill="#FF4F58"/>
</svg>
